<svg xmlns="http://www.w3.org/2000/svg" width="761.5167236328125" height="1042.6417236328125" viewBox="-423.58184814453125 -444.37774658203125 761.5167236328125 1042.6417236328125"><title>Neo4j Graph Visualization</title><desc>Created using Neo4j (http://www.neo4j.com/)</desc><g class="layer relationships"><g class="relationship" transform="translate(158.18743289730773 109.15659894956066) rotate(461.3980176953346)"><path class="b-outline" fill="#A5ABB6" stroke="none" d="M 25 0.5 L 71.86058046761705 0.5 L 71.86058046761705 -0.5 L 25 -0.5 Z M 85.86058046761705 0.5 L 132.7211609352341 0.5 L 132.7211609352341 3.5 L 139.7211609352341 0 L 132.7211609352341 -3.5 L 132.7211609352341 -0.5 L 85.86058046761705 -0.5 Z"/><text text-anchor="middle" pointer-events="none" font-size="8px" fill="#000000" x="78.86058046761705" y="3" transform="rotate(180 78.86058046761705 0)" font-family="Helvetica Neue, Helvetica, Arial, sans-serif">子</text></g><g class="relationship" transform="translate(28.01712501299632 392.50428037932454) rotate(308.6934542332293)"><path class="b-outline" fill="#A5ABB6" stroke="none" d="M 25 0.5 L 55.57486413285716 0.5 L 55.57486413285716 -0.5 L 25 -0.5 Z M 93.57486413285716 0.5 L 124.14972826571432 0.5 L 124.14972826571432 3.5 L 131.14972826571432 0 L 124.14972826571432 -3.5 L 124.14972826571432 -0.5 L 93.57486413285716 -0.5 Z"/><text text-anchor="middle" pointer-events="none" font-size="8px" fill="#000000" x="74.57486413285716" y="3" font-family="Helvetica Neue, Helvetica, Arial, sans-serif">重孙媳妇</text></g><g class="relationship" transform="translate(248.09189940292077 229.7316584008173) rotate(233.2906576694768)"><path class="b-outline" fill="#A5ABB6" stroke="none" d="M 25 0.5 L 64.70165898990024 0.5 L 64.70165898990024 -0.5 L 25 -0.5 Z M 78.70165898990024 0.5 L 118.40331797980048 0.5 L 118.40331797980048 3.5 L 125.40331797980048 0 L 118.40331797980048 -3.5 L 118.40331797980048 -0.5 L 78.70165898990024 -0.5 Z"/><text text-anchor="middle" pointer-events="none" font-size="8px" fill="#000000" x="71.70165898990024" y="3" transform="rotate(180 71.70165898990024 0)" font-family="Helvetica Neue, Helvetica, Arial, sans-serif">妻</text></g><g class="relationship" transform="translate(305.18004855999015 140.5554868056512) rotate(192.0576597528203)"><path class="b-outline" fill="#A5ABB6" stroke="none" d="M 25 0.5 L 64.65437315611851 0.5 L 64.65437315611851 -0.5 L 25 -0.5 Z M 78.65437315611851 0.5 L 118.30874631223702 0.5 L 118.30874631223702 3.5 L 125.30874631223702 0 L 118.30874631223702 -3.5 L 118.30874631223702 -0.5 L 78.65437315611851 -0.5 Z"/><text text-anchor="middle" pointer-events="none" font-size="8px" fill="#000000" x="71.65437315611851" y="3" transform="rotate(180 71.65437315611851 0)" font-family="Helvetica Neue, Helvetica, Arial, sans-serif">妾</text></g><g class="relationship" transform="translate(58.63303473442528 33.153963621933094) rotate(506.5205902817289)"><path class="b-outline" fill="#A5ABB6" stroke="none" d="M 25 0.5 L 62.56670566062182 0.5 L 62.56670566062182 -0.5 L 25 -0.5 Z M 76.56670566062182 0.5 L 114.13341132124364 0.5 L 114.13341132124364 3.5 L 121.13341132124364 0 L 114.13341132124364 -3.5 L 114.13341132124364 -0.5 L 76.56670566062182 -0.5 Z"/><text text-anchor="middle" pointer-events="none" font-size="8px" fill="#000000" x="69.56670566062182" y="3" transform="rotate(180 69.56670566062182 0)" font-family="Helvetica Neue, Helvetica, Arial, sans-serif">妹</text></g><g class="relationship" transform="translate(58.63303473442528 33.153963621933094) rotate(397.359135083368)"><path class="b-outline" fill="#A5ABB6" stroke="none" d="M 25 0.5 L 52.124832874663376 0.5 L 52.124832874663376 -0.5 L 25 -0.5 Z M 66.12483287466338 0.5 L 93.24966574932675 0.5 L 93.24966574932675 3.5 L 100.24966574932675 0 L 93.24966574932675 -3.5 L 93.24966574932675 -0.5 L 66.12483287466338 -0.5 Z"/><text text-anchor="middle" pointer-events="none" font-size="8px" fill="#000000" x="59.124832874663376" y="3" font-family="Helvetica Neue, Helvetica, Arial, sans-serif">女</text></g><g class="relationship" transform="translate(288.4121371387582 -55.61075544357635) rotate(209.75867657027743)"><path class="b-outline" fill="#A5ABB6" stroke="none" d="M 25 0.5 L 63.82337905596734 0.5 L 63.82337905596734 -0.5 L 25 -0.5 Z M 77.82337905596734 0.5 L 116.64675811193467 0.5 L 116.64675811193467 3.5 L 123.64675811193467 0 L 116.64675811193467 -3.5 L 116.64675811193467 -0.5 L 77.82337905596734 -0.5 Z"/><text text-anchor="middle" pointer-events="none" font-size="8px" fill="#000000" x="70.82337905596734" y="3" transform="rotate(180 70.82337905596734 0)" font-family="Helvetica Neue, Helvetica, Arial, sans-serif">妾</text></g><g class="relationship" transform="translate(159.3683694205237 -129.39127258916395) rotate(450.28364170878274)"><path class="b-outline" fill="#A5ABB6" stroke="none" d="M 25 0.5 L 108.77539732351318 0.5 L 108.77539732351318 -0.5 L 25 -0.5 Z M 122.77539732351318 0.5 L 206.55079464702635 0.5 L 206.55079464702635 3.5 L 213.55079464702635 0 L 206.55079464702635 -3.5 L 206.55079464702635 -0.5 L 122.77539732351318 -0.5 Z"/><text text-anchor="middle" pointer-events="none" font-size="8px" fill="#000000" x="115.77539732351318" y="3" transform="rotate(180 115.77539732351318 0)" font-family="Helvetica Neue, Helvetica, Arial, sans-serif">子</text></g><g class="relationship" transform="translate(308.93494530872135 -153.21770881420994) rotate(530.9486536945284)"><path class="b-outline" fill="#A5ABB6" stroke="none" d="M 25 0.5 L 65.22624988421481 0.5 L 65.22624988421481 -0.5 L 25 -0.5 Z M 79.22624988421481 0.5 L 119.45249976842962 0.5 L 119.45249976842962 3.5 L 126.45249976842962 0 L 119.45249976842962 -3.5 L 119.45249976842962 -0.5 L 79.22624988421481 -0.5 Z"/><text text-anchor="middle" pointer-events="none" font-size="8px" fill="#000000" x="72.22624988421481" y="3" transform="rotate(180 72.22624988421481 0)" font-family="Helvetica Neue, Helvetica, Arial, sans-serif">妾</text></g><g class="relationship" transform="translate(261.563697732714 -240.96874807824622) rotate(492.48699236517416)"><path class="b-outline" fill="#A5ABB6" stroke="none" d="M 25 0.5 L 65.15285547379081 0.5 L 65.15285547379081 -0.5 L 25 -0.5 Z M 79.15285547379081 0.5 L 119.30571094758162 0.5 L 119.30571094758162 3.5 L 126.30571094758162 0 L 119.30571094758162 -3.5 L 119.30571094758162 -0.5 L 79.15285547379081 -0.5 Z"/><text text-anchor="middle" pointer-events="none" font-size="8px" fill="#000000" x="72.15285547379081" y="3" transform="rotate(180 72.15285547379081 0)" font-family="Helvetica Neue, Helvetica, Arial, sans-serif">妾</text></g><g class="relationship" transform="translate(169.25838254615863 -278.7997678181581) rotate(453.7871376711139)"><path class="b-outline" fill="#A5ABB6" stroke="none" d="M 25 0.5 L 64.36773471632756 0.5 L 64.36773471632756 -0.5 L 25 -0.5 Z M 78.36773471632756 0.5 L 117.73546943265512 0.5 L 117.73546943265512 3.5 L 124.73546943265512 0 L 117.73546943265512 -3.5 L 117.73546943265512 -0.5 L 78.36773471632756 -0.5 Z"/><text text-anchor="middle" pointer-events="none" font-size="8px" fill="#000000" x="71.36773471632756" y="3" transform="rotate(180 71.36773471632756 0)" font-family="Helvetica Neue, Helvetica, Arial, sans-serif">女</text></g><g class="relationship" transform="translate(-19.79460078999548 -28.16999276409548) rotate(467.02419577765363)"><path class="b-outline" fill="#A5ABB6" stroke="none" d="M 25 0.5 L 63.72055207076552 0.5 L 63.72055207076552 -0.5 L 25 -0.5 Z M 77.72055207076552 0.5 L 116.44110414153104 0.5 L 116.44110414153104 3.5 L 123.44110414153104 0 L 116.44110414153104 -3.5 L 116.44110414153104 -0.5 L 77.72055207076552 -0.5 Z"/><text text-anchor="middle" pointer-events="none" font-size="8px" fill="#000000" x="70.72055207076552" y="3" transform="rotate(180 70.72055207076552 0)" font-family="Helvetica Neue, Helvetica, Arial, sans-serif">妾</text></g><g class="relationship" transform="translate(-63.25452258579882 113.76660081296457) rotate(358.8073827214512)"><path class="b-outline" fill="#A5ABB6" stroke="none" d="M 25 0.5 L 100.24496801814826 0.5 L 100.24496801814826 -0.5 L 25 -0.5 Z M 114.24496801814826 0.5 L 189.4899360362965 0.5 L 189.4899360362965 3.5 L 196.4899360362965 0 L 189.4899360362965 -3.5 L 189.4899360362965 -0.5 L 114.24496801814826 -0.5 Z"/><text text-anchor="middle" pointer-events="none" font-size="8px" fill="#000000" x="107.24496801814826" y="3" font-family="Helvetica Neue, Helvetica, Arial, sans-serif">子</text></g><g class="relationship" transform="translate(-119.44028840635428 -27.932440671783784) rotate(428.3709417512471)"><path class="b-outline" fill="#A5ABB6" stroke="none" d="M 25 0.5 L 65.71590817955713 0.5 L 65.71590817955713 -0.5 L 25 -0.5 Z M 79.71590817955713 0.5 L 120.43181635911426 0.5 L 120.43181635911426 3.5 L 127.43181635911426 0 L 120.43181635911426 -3.5 L 120.43181635911426 -0.5 L 79.71590817955713 -0.5 Z"/><text text-anchor="middle" pointer-events="none" font-size="8px" fill="#000000" x="72.71590817955713" y="3" font-family="Helvetica Neue, Helvetica, Arial, sans-serif">妾</text></g><g class="relationship" transform="translate(-191.63236092114158 40.81243630367767) rotate(389.60857037990434)"><path class="b-outline" fill="#A5ABB6" stroke="none" d="M 25 0.5 L 63.329498669067746 0.5 L 63.329498669067746 -0.5 L 25 -0.5 Z M 77.32949866906775 0.5 L 115.65899733813549 0.5 L 115.65899733813549 3.5 L 122.65899733813549 0 L 115.65899733813549 -3.5 L 115.65899733813549 -0.5 L 77.32949866906775 -0.5 Z"/><text text-anchor="middle" pointer-events="none" font-size="8px" fill="#000000" x="70.32949866906775" y="3" font-family="Helvetica Neue, Helvetica, Arial, sans-serif">子</text></g><g class="relationship" transform="translate(-125.29778053457645 -252.47943401258465) rotate(351.0107306905635)"><path class="b-outline" fill="#A5ABB6" stroke="none" d="M 25 0.5 L 64.45894787943749 0.5 L 64.45894787943749 -0.5 L 25 -0.5 Z M 78.45894787943749 0.5 L 117.91789575887498 0.5 L 117.91789575887498 3.5 L 124.91789575887498 0 L 117.91789575887498 -3.5 L 117.91789575887498 -0.5 L 78.45894787943749 -0.5 Z"/><text text-anchor="middle" pointer-events="none" font-size="8px" fill="#000000" x="71.45894787943749" y="3" font-family="Helvetica Neue, Helvetica, Arial, sans-serif">妾</text></g><g class="relationship" transform="translate(22.77876684561768 -275.9040275998814) rotate(407.00747915794517)"><path class="b-outline" fill="#A5ABB6" stroke="none" d="M 25 0.5 L 89.65326618787985 0.5 L 89.65326618787985 -0.5 L 25 -0.5 Z M 103.65326618787985 0.5 L 168.3065323757597 0.5 L 168.3065323757597 3.5 L 175.3065323757597 0 L 168.3065323757597 -3.5 L 168.3065323757597 -0.5 L 103.65326618787985 -0.5 Z"/><text text-anchor="middle" pointer-events="none" font-size="8px" fill="#000000" x="96.65326618787985" y="3" font-family="Helvetica Neue, Helvetica, Arial, sans-serif">子</text></g><g class="relationship" transform="translate(-30.4512776412124 -415.3777373366902) rotate(429.1106797428855)"><path class="b-outline" fill="#A5ABB6" stroke="none" d="M 25 0.5 L 64.14307292679192 0.5 L 64.14307292679192 -0.5 L 25 -0.5 Z M 78.14307292679192 0.5 L 117.28614585358383 0.5 L 117.28614585358383 3.5 L 124.28614585358383 0 L 117.28614585358383 -3.5 L 117.28614585358383 -0.5 L 78.14307292679192 -0.5 Z"/><text text-anchor="middle" pointer-events="none" font-size="8px" fill="#000000" x="71.14307292679192" y="3" font-family="Helvetica Neue, Helvetica, Arial, sans-serif">妾</text></g><g class="relationship" transform="translate(-109.45565718378221 -350.97973036853307) rotate(389.5856156560812)"><path class="b-outline" fill="#A5ABB6" stroke="none" d="M 25 0.5 L 65.53009937615836 0.5 L 65.53009937615836 -0.5 L 25 -0.5 Z M 79.53009937615836 0.5 L 120.06019875231672 0.5 L 120.06019875231672 3.5 L 127.06019875231672 0 L 120.06019875231672 -3.5 L 120.06019875231672 -0.5 L 79.53009937615836 -0.5 Z"/><text text-anchor="middle" pointer-events="none" font-size="8px" fill="#000000" x="72.53009937615836" y="3" font-family="Helvetica Neue, Helvetica, Arial, sans-serif">妾</text></g><g class="relationship" transform="translate(-383.16584840174096 26.49749553791298) rotate(395.30127271521314)"><path class="b-outline" fill="#A5ABB6" stroke="none" d="M 25 0.5 L 65.06944544458885 0.5 L 65.06944544458885 -0.5 L 25 -0.5 Z M 79.06944544458885 0.5 L 119.1388908891777 0.5 L 119.1388908891777 3.5 L 126.1388908891777 0 L 119.1388908891777 -3.5 L 119.1388908891777 -0.5 L 79.06944544458885 -0.5 Z"/><text text-anchor="middle" pointer-events="none" font-size="8px" fill="#000000" x="72.06944544458885" y="3" font-family="Helvetica Neue, Helvetica, Arial, sans-serif">妻</text></g><g class="relationship" transform="translate(-259.8176582721435 113.83699594273232) rotate(359.97948067094353)"><path class="b-outline" fill="#A5ABB6" stroke="none" d="M 25 0.5 L 87.78157414582176 0.5 L 87.78157414582176 -0.5 L 25 -0.5 Z M 101.78157414582176 0.5 L 164.56314829164353 0.5 L 164.56314829164353 3.5 L 171.56314829164353 0 L 164.56314829164353 -3.5 L 164.56314829164353 -0.5 L 101.78157414582176 -0.5 Z"/><text text-anchor="middle" pointer-events="none" font-size="8px" fill="#000000" x="94.78157414582176" y="3" font-family="Helvetica Neue, Helvetica, Arial, sans-serif">子</text></g><g class="relationship" transform="translate(-257.41062947900906 256.93710158692807) rotate(269.0363418255095)"><path class="b-outline" fill="#A5ABB6" stroke="none" d="M 25 0.5 L 61.06017401982574 0.5 L 61.06017401982574 -0.5 L 25 -0.5 Z M 75.06017401982574 0.5 L 111.12034803965147 0.5 L 111.12034803965147 3.5 L 118.12034803965147 0 L 111.12034803965147 -3.5 L 111.12034803965147 -0.5 L 75.06017401982574 -0.5 Z"/><text text-anchor="middle" pointer-events="none" font-size="8px" fill="#000000" x="68.06017401982574" y="3" transform="rotate(180 68.06017401982574 0)" font-family="Helvetica Neue, Helvetica, Arial, sans-serif">妾</text></g><g class="relationship" transform="translate(-394.58183767289995 169.34221786759431) rotate(337.6147434077983)"><path class="b-outline" fill="#A5ABB6" stroke="none" d="M 25 0.5 L 62.373544085778235 0.5 L 62.373544085778235 -0.5 L 25 -0.5 Z M 76.37354408577824 0.5 L 113.74708817155647 0.5 L 113.74708817155647 3.5 L 120.74708817155647 0 L 113.74708817155647 -3.5 L 113.74708817155647 -0.5 L 76.37354408577824 -0.5 Z"/><text text-anchor="middle" pointer-events="none" font-size="8px" fill="#000000" x="69.37354408577824" y="3" font-family="Helvetica Neue, Helvetica, Arial, sans-serif">子</text></g><g class="relationship" transform="translate(-115.93338428423368 423.66354110026026) rotate(347.78628931968046)"><path class="b-outline" fill="#A5ABB6" stroke="none" d="M 25 0.5 L 63.14212221209942 0.5 L 63.14212221209942 -0.5 L 25 -0.5 Z M 77.14212221209942 0.5 L 115.28424442419885 0.5 L 115.28424442419885 3.5 L 122.28424442419885 0 L 115.28424442419885 -3.5 L 115.28424442419885 -0.5 L 77.14212221209942 -0.5 Z"/><text text-anchor="middle" pointer-events="none" font-size="8px" fill="#000000" x="70.14212221209942" y="3" font-family="Helvetica Neue, Helvetica, Arial, sans-serif">子</text></g></g><g class="layer nodes"><g class="node" aria-label="graph-node0" transform="translate(158.18743289730773,109.15659894956066)"><circle class="b-outline" cx="0" cy="0" r="25" fill="#C990C0" stroke="#b261a5" stroke-width="2px"/><text class="caption" text-anchor="middle" pointer-events="none" x="0" y="5" font-size="10px" fill="#FFFFFF" font-family="Helvetica Neue, Helvetica, Arial, sans-serif"> 贾代善</text></g><g class="node" aria-label="graph-node1" transform="translate(125.63467288840658,270.6291312132685)"><circle class="b-outline" cx="0" cy="0" r="25" fill="#C990C0" stroke="#b261a5" stroke-width="2px"/><text class="caption" text-anchor="middle" pointer-events="none" x="0" y="5" font-size="10px" fill="#FFFFFF" font-family="Helvetica Neue, Helvetica, Arial, sans-serif"> 贾源</text></g><g class="node" aria-label="graph-node2" transform="translate(28.01712501299632,392.50428037932454)"><circle class="b-outline" cx="0" cy="0" r="25" fill="#C990C0" stroke="#b261a5" stroke-width="2px"/><text class="caption" text-anchor="middle" pointer-events="none" x="0" y="5" font-size="10px" fill="#FFFFFF" font-family="Helvetica Neue, Helvetica, Arial, sans-serif"> 娄氏</text></g><g class="node" aria-label="graph-node3" transform="translate(248.09189940292077,229.7316584008173)"><circle class="b-outline" cx="0" cy="0" r="25" fill="#C990C0" stroke="#b261a5" stroke-width="2px"/><text class="caption" text-anchor="middle" pointer-events="none" x="0" y="5" font-size="10px" fill="#FFFFFF" font-family="Helvetica Neue, Helvetica, Arial, sans-serif"> 贾母</text></g><g class="node" aria-label="graph-node4" transform="translate(305.18004855999015,140.5554868056512)"><circle class="b-outline" cx="0" cy="0" r="25" fill="#C990C0" stroke="#b261a5" stroke-width="2px"/><text class="caption" text-anchor="middle" pointer-events="none" x="0" y="5" font-size="10px" fill="#FFFFFF" font-family="Helvetica Neue, Helvetica, Arial, sans-serif"> 老姨奶奶</text></g><g class="node" aria-label="graph-node5" transform="translate(58.63303473442528,33.153963621933094)"><circle class="b-outline" cx="0" cy="0" r="25" fill="#C990C0" stroke="#b261a5" stroke-width="2px"/><text class="caption" text-anchor="middle" pointer-events="none" x="0" y="5" font-size="10px" fill="#FFFFFF" font-family="Helvetica Neue, Helvetica, Arial, sans-serif"> 贾敏</text></g><g class="node" aria-label="graph-node6" transform="translate(288.4121371387582,-55.61075544357635)"><circle class="b-outline" cx="0" cy="0" r="25" fill="#C990C0" stroke="#b261a5" stroke-width="2px"/><text class="caption" text-anchor="middle" pointer-events="none" x="0" y="5" font-size="10px" fill="#FFFFFF" font-family="Helvetica Neue, Helvetica, Arial, sans-serif"> 嫣红</text></g><g class="node" aria-label="graph-node7" transform="translate(159.3683694205237,-129.39127258916395)"><circle class="b-outline" cx="0" cy="0" r="25" fill="#C990C0" stroke="#b261a5" stroke-width="2px"/><text class="caption" text-anchor="middle" pointer-events="none" x="0" y="5" font-size="10px" fill="#FFFFFF" font-family="Helvetica Neue, Helvetica, Arial, sans-serif"> 贾赦</text></g><g class="node" aria-label="graph-node8" transform="translate(308.93494530872135,-153.21770881420994)"><circle class="b-outline" cx="0" cy="0" r="25" fill="#C990C0" stroke="#b261a5" stroke-width="2px"/><text class="caption" text-anchor="middle" pointer-events="none" x="0" y="5" font-size="10px" fill="#FFFFFF" font-family="Helvetica Neue, Helvetica, Arial, sans-serif"> 翠云</text></g><g class="node" aria-label="graph-node9" transform="translate(261.563697732714,-240.96874807824622)"><circle class="b-outline" cx="0" cy="0" r="25" fill="#C990C0" stroke="#b261a5" stroke-width="2px"/><text class="caption" text-anchor="middle" pointer-events="none" x="0" y="5" font-size="10px" fill="#FFFFFF" font-family="Helvetica Neue, Helvetica, Arial, sans-serif"> 娇红</text></g><g class="node" aria-label="graph-node10" transform="translate(169.25838254615863,-278.7997678181581)"><circle class="b-outline" cx="0" cy="0" r="25" fill="#C990C0" stroke="#b261a5" stroke-width="2px"/><text class="caption" text-anchor="middle" pointer-events="none" x="0" y="5" font-size="10px" fill="#FFFFFF" font-family="Helvetica Neue, Helvetica, Arial, sans-serif"> 贾迎春</text></g><g class="node" aria-label="graph-node11" transform="translate(-19.79460078999548,-28.16999276409548)"><circle class="b-outline" cx="0" cy="0" r="25" fill="#C990C0" stroke="#b261a5" stroke-width="2px"/><text class="caption" text-anchor="middle" pointer-events="none" x="0" y="5" font-size="10px" fill="#FFFFFF" font-family="Helvetica Neue, Helvetica, Arial, sans-serif"> 赵姨娘</text></g><g class="node" aria-label="graph-node12" transform="translate(-63.25452258579882,113.76660081296457)"><circle class="b-outline" cx="0" cy="0" r="25" fill="#C990C0" stroke="#b261a5" stroke-width="2px"/><text class="caption" text-anchor="middle" pointer-events="none" x="0" y="5" font-size="10px" fill="#FFFFFF" font-family="Helvetica Neue, Helvetica, Arial, sans-serif"> 贾政</text></g><g class="node" aria-label="graph-node13" transform="translate(-119.44028840635428,-27.932440671783784)"><circle class="b-outline" cx="0" cy="0" r="25" fill="#C990C0" stroke="#b261a5" stroke-width="2px"/><text class="caption" text-anchor="middle" pointer-events="none" x="0" y="5" font-size="10px" fill="#FFFFFF" font-family="Helvetica Neue, Helvetica, Arial, sans-serif"> 周姨娘</text></g><g class="node" aria-label="graph-node14" transform="translate(-191.63236092114158,40.81243630367767)"><circle class="b-outline" cx="0" cy="0" r="25" fill="#C990C0" stroke="#b261a5" stroke-width="2px"/><text class="caption" text-anchor="middle" pointer-events="none" x="0" y="5" font-size="10px" fill="#FFFFFF" font-family="Helvetica Neue, Helvetica, Arial, sans-serif"> 贾珠</text></g><g class="node" aria-label="graph-node15" transform="translate(-125.29778053457645,-252.47943401258465)"><circle class="b-outline" cx="0" cy="0" r="25" fill="#C990C0" stroke="#b261a5" stroke-width="2px"/><text class="caption" text-anchor="middle" pointer-events="none" x="0" y="5" font-size="10px" fill="#FFFFFF" font-family="Helvetica Neue, Helvetica, Arial, sans-serif"> 尤二姐</text></g><g class="node" aria-label="graph-node16" transform="translate(22.77876684561768,-275.9040275998814)"><circle class="b-outline" cx="0" cy="0" r="25" fill="#C990C0" stroke="#b261a5" stroke-width="2px"/><text class="caption" text-anchor="middle" pointer-events="none" x="0" y="5" font-size="10px" fill="#FFFFFF" font-family="Helvetica Neue, Helvetica, Arial, sans-serif"> 贾琏</text></g><g class="node" aria-label="graph-node17" transform="translate(-30.4512776412124,-415.3777373366902)"><circle class="b-outline" cx="0" cy="0" r="25" fill="#C990C0" stroke="#b261a5" stroke-width="2px"/><text class="caption" text-anchor="middle" pointer-events="none" x="0" y="5" font-size="10px" fill="#FFFFFF" font-family="Helvetica Neue, Helvetica, Arial, sans-serif"> 秋桐</text></g><g class="node" aria-label="graph-node18" transform="translate(-109.45565718378221,-350.97973036853307)"><circle class="b-outline" cx="0" cy="0" r="25" fill="#C990C0" stroke="#b261a5" stroke-width="2px"/><text class="caption" text-anchor="middle" pointer-events="none" x="0" y="5" font-size="10px" fill="#FFFFFF" font-family="Helvetica Neue, Helvetica, Arial, sans-serif"> 平儿</text></g><g class="node" aria-label="graph-node19" transform="translate(-383.16584840174096,26.49749553791298)"><circle class="b-outline" cx="0" cy="0" r="25" fill="#C990C0" stroke="#b261a5" stroke-width="2px"/><text class="caption" text-anchor="middle" pointer-events="none" x="0" y="5" font-size="10px" fill="#FFFFFF" font-family="Helvetica Neue, Helvetica, Arial, sans-serif"> 薛宝衩</text></g><g class="node" aria-label="graph-node20" transform="translate(-259.8176582721435,113.83699594273232)"><circle class="b-outline" cx="0" cy="0" r="25" fill="#C990C0" stroke="#b261a5" stroke-width="2px"/><text class="caption" text-anchor="middle" pointer-events="none" x="0" y="5" font-size="10px" fill="#FFFFFF" font-family="Helvetica Neue, Helvetica, Arial, sans-serif"> 贾宝玉</text></g><g class="node" aria-label="graph-node21" transform="translate(-257.41062947900906,256.93710158692807)"><circle class="b-outline" cx="0" cy="0" r="25" fill="#C990C0" stroke="#b261a5" stroke-width="2px"/><text class="caption" text-anchor="middle" pointer-events="none" x="0" y="5" font-size="10px" fill="#FFFFFF" font-family="Helvetica Neue, Helvetica, Arial, sans-serif"> 花袭人</text></g><g class="node" aria-label="graph-node22" transform="translate(-394.58183767289995,169.34221786759431)"><circle class="b-outline" cx="0" cy="0" r="25" fill="#C990C0" stroke="#b261a5" stroke-width="2px"/><text class="caption" text-anchor="middle" pointer-events="none" x="0" y="5" font-size="10px" fill="#FFFFFF" font-family="Helvetica Neue, Helvetica, Arial, sans-serif"> 贾桂</text></g><g class="node" aria-label="graph-node23" transform="translate(-115.93338428423368,423.66354110026026)"><circle class="b-outline" cx="0" cy="0" r="25" fill="#C990C0" stroke="#b261a5" stroke-width="2px"/><text class="caption" text-anchor="middle" pointer-events="none" x="0" y="5" font-size="10px" fill="#FFFFFF" font-family="Helvetica Neue, Helvetica, Arial, sans-serif"> 贾菌</text></g><g class="node" aria-label="graph-node24" transform="translate(-39.55420053995167,569.2639881503063)"><circle class="b-outline" cx="0" cy="0" r="25" fill="#C990C0" stroke="#b261a5" stroke-width="2px"/><text class="caption" text-anchor="middle" pointer-events="none" x="0" y="5" font-size="10px" fill="#FFFFFF" font-family="Helvetica Neue, Helvetica, Arial, sans-serif"> 周秀才</text></g></g></svg>